<svg width="128" height="128" viewBox="0 0 128 128" fill="none" xmlns="http://www.w3.org/2000/svg">
<rect x="0.5" y="0.5" width="127" height="127" rx="7.5" fill="white" fill-opacity="0.5" stroke="#8BAA36"/>
<g clip-path="url(#clip0_2212_1022)">
<path fill-rule="evenodd" clip-rule="evenodd" d="M52.0803 87.5614C50.6158 89.0259 48.2415 89.0259 46.777 87.5614C45.6229 86.4073 45.3783 84.6881 46.0432 83.2945L45.7406 82.9919C44.3469 83.6568 42.6278 83.4122 41.4737 82.2581C40.0092 80.7936 40.0092 78.4193 41.4737 76.9548C42.9382 75.4903 45.3125 75.4903 46.777 76.9548C47.0874 77.2652 47.332 77.6164 47.5108 77.9912L52.0756 73.4246C52.554 74.0958 53.0942 74.7365 53.6964 75.3387C54.2992 75.9415 54.9406 76.4822 55.6125 76.961L51.0462 81.5254C51.4201 81.7041 51.7706 81.9484 52.0803 82.2581C53.5448 83.7226 53.5448 86.0969 52.0803 87.5614ZM65.0017 42.8238L65.0353 42.7866C67.9642 39.8577 75.0873 42.2321 80.9452 48.0899C86.803 53.9478 89.1774 61.0709 86.2485 63.9998L74.9096 75.3387C69.0518 81.1965 59.5543 81.1965 53.6964 75.3387C47.8386 69.4808 47.8386 59.9833 53.6964 54.1255L65.0017 42.8238ZM65.0353 42.7866C62.1063 45.7156 64.4807 52.8387 70.3386 58.6965C76.1964 64.5544 83.3195 66.9288 86.2485 63.9998C89.1774 61.0709 86.803 53.9478 80.9452 48.0899C75.0873 42.2321 67.9642 39.8577 65.0353 42.7866ZM72.1063 49.8577C71.13 50.834 71.9215 53.2084 73.8741 55.161C75.8267 57.1136 78.2011 57.9051 79.1774 56.9288C80.1537 55.9525 79.3622 53.5781 77.4096 51.6255C75.457 49.6728 73.0826 48.8814 72.1063 49.8577Z" stroke="#8BAA36" stroke-width="2" stroke-linecap="round"/>
</g>
<defs>
<clipPath id="clip0_2212_1022">
<rect width="60" height="60" fill="white" transform="translate(34 34)"/>
</clipPath>
</defs>
</svg>
